<?xml version="1.0"?>
<svg xmlns="http://www.w3.org/2000/svg" viewBox="0 0 50 50">
    <path d="M 24.5625 4.0175781 C 23.830375 4.0662031 23.012922 4.2205469 22.294922 4.4980469 L 20.537109 5.1757812 C 20.141109 5.3287812 19.887328 5.4758906 19.736328 5.5878906 L 23.367188 7.0019531 C 24.120188 7.2939531 25.96525 7.2280625 27.40625 6.6640625 L 29.148438 5.9804688 C 29.532438 5.8304687 29.776828 5.6851719 29.923828 5.5761719 L 26.316406 4.171875 C 25.940906 4.025875 25.294625 3.9689531 24.5625 4.0175781 z M 17.349609 6.8046875 C 16.606859 6.8549375 15.775969 7.0124219 15.042969 7.2949219 L 13.259766 7.9824219 C 12.827766 8.1494219 12.573734 8.3040156 12.427734 8.4160156 L 16.091797 9.8417969 C 16.851797 10.136797 18.722453 10.066187 20.189453 9.4921875 L 21.957031 8.8007812 C 22.375031 8.6367813 22.622625 8.485 22.765625 8.375 L 19.123047 6.9570312 C 18.746047 6.8105313 18.092359 6.7544375 17.349609 6.8046875 z M 31.949219 6.8925781 C 31.220844 6.9422031 30.407312 7.0979531 29.695312 7.3769531 L 27.953125 8.0605469 C 27.543125 8.2215469 27.301156 8.3695625 27.160156 8.4765625 L 30.802734 9.8945312 C 31.554734 10.187531 33.389406 10.119781 34.816406 9.5507812 L 36.544922 8.8613281 C 36.940922 8.7033281 37.1765 8.5571719 37.3125 8.4511719 L 33.695312 7.0429688 C 33.321813 6.8984688 32.677594 6.8429531 31.949219 6.8925781 z M 10.021484 9.6367188 C 9.2684844 9.6888438 8.4246875 9.8492187 7.6796875 10.136719 L 5.8671875 10.835938 C 5.4121875 11.010937 5.148 11.174062 5 11.289062 L 8.6992188 12.728516 C 9.4682188 13.026516 11.363469 12.954141 12.855469 12.369141 L 14.652344 11.664062 C 15.093344 11.491062 15.348187 11.33175 15.492188 11.21875 L 11.818359 9.7890625 C 11.437359 9.6410625 10.774484 9.5845937 10.021484 9.6367188 z M 24.794922 9.7011719 C 24.056547 9.7524219 23.230406 9.9113125 22.503906 10.195312 L 20.734375 10.890625 C 20.301375 11.059625 20.050203 11.216125 19.908203 11.328125 L 23.585938 12.759766 C 24.345938 13.055766 26.202297 12.981297 27.654297 12.404297 L 29.410156 11.703125 C 29.828156 11.536125 30.073891 11.384391 30.212891 11.275391 L 26.560547 9.8535156 C 26.184547 9.7075156 25.533297 9.6499219 24.794922 9.7011719 z M 39.335938 9.765625 C 38.612562 9.81675 37.805609 9.9743594 37.099609 10.255859 L 35.371094 10.943359 C 34.960094 11.107359 34.719031 11.259187 34.582031 11.367188 L 38.238281 12.789062 C 38.991281 13.081062 40.811609 13.0095 42.224609 12.4375 L 43.939453 11.744141 C 44.336453 11.583141 44.570125 11.434125 44.703125 11.328125 L 41.070312 9.9140625 C 40.697812 9.7690625 40.059313 9.7145 39.335938 9.765625 z M 18.556641 12.554688 C 17.639063 12.477438 16.306219 12.627047 15.199219 13.060547 L 13.402344 13.765625 C 12.946344 13.944625 12.685016 14.109609 12.541016 14.224609 L 16.253906 15.669922 C 17.019906 15.967922 18.903813 15.890734 20.382812 15.302734 L 22.164062 14.59375 C 22.605062 14.41775 22.859 14.256578 23 14.142578 L 19.3125 12.705078 C 19.12275 12.631078 18.8625 12.580438 18.556641 12.554688 z M 32.236328 12.597656 C 31.502703 12.650281 30.684297 12.811156 29.966797 13.097656 L 28.210938 13.798828 C 27.776937 13.971828 27.528625 14.128234 27.390625 14.240234 L 31.078125 15.677734 C 31.837125 15.973734 33.684047 15.897453 35.123047 15.314453 L 36.863281 14.609375 C 37.282281 14.439375 37.525156 14.285781 37.660156 14.175781 L 33.994141 12.748047 C 33.618141 12.601047 32.969953 12.545031 32.236328 12.597656 z M 4.2734375 12.705078 C 4.1941875 12.704828 4.1356094 12.725906 4.0996094 12.753906 C 4.0136094 12.820906 4 12.984172 4 13.076172 L 4 17.185547 C 4 17.805547 4.5136094 18.616875 5.0996094 18.921875 L 7.328125 20.142578 C 7.606125 20.284578 7.8201563 20.286656 7.9101562 20.222656 C 7.9891562 20.165656 8 20.006969 8 19.917969 L 8 15.548828 C 8 14.890828 7.4397813 14.067109 6.8007812 13.787109 L 4.5683594 12.777344 C 4.4513594 12.725344 4.3526875 12.705328 4.2734375 12.705078 z M 45.730469 12.783203 C 45.653469 12.783203 45.556406 12.803562 45.441406 12.851562 L 43.169922 13.78125 C 42.560922 14.03825 42 14.849469 42 15.480469 L 42 19.792969 C 42 19.878969 42.010891 20.032891 42.087891 20.087891 C 42.175891 20.151891 42.391016 20.153719 42.666016 20.011719 L 44.931641 18.855469 C 45.500641 18.564469 46 17.781688 46 17.179688 L 46 13.146484 C 46 13.057484 45.986344 12.896078 45.902344 12.830078 C 45.866344 12.803078 45.808469 12.783203 45.730469 12.783203 z M 10.371094 15.136719 C 10.257094 15.136719 10.174094 15.164125 10.121094 15.203125 C 10.041094 15.262125 10 15.378828 10 15.548828 L 10 19.917969 C 10 20.517969 10.55275 21.460422 11.34375 21.857422 L 15.064453 23.640625 C 15.454453 23.836625 15.759672 23.834141 15.888672 23.744141 C 15.962672 23.692141 16 23.583969 16 23.417969 L 16 18.753906 C 16 18.033906 15.309437 17.109344 14.523438 16.777344 L 10.806641 15.238281 C 10.633641 15.165281 10.486094 15.136719 10.371094 15.136719 z M 39.617188 15.279297 C 39.505187 15.279297 39.365172 15.304094 39.201172 15.371094 L 35.488281 16.978516 C 34.689281 17.303516 34 18.207969 34 18.917969 L 34 23.546875 C 34 23.707875 34.036375 23.816188 34.109375 23.867188 C 34.242375 23.960187 34.553313 23.963531 34.945312 23.769531 L 38.671875 21.896484 C 39.454875 21.510484 40 20.587 40 20 L 40 15.689453 C 40 15.523453 39.959859 15.409609 39.880859 15.349609 C 39.826859 15.308609 39.736187 15.279297 39.617188 15.279297 z M 26.054688 15.472656 C 25.139688 15.396484 23.815703 15.549078 22.720703 15.986328 L 20.9375 16.695312 C 20.5005 16.869312 20.231031 17.039156 20.082031 17.160156 L 23.806641 18.609375 C 24.573641 18.908375 26.448156 18.827375 27.910156 18.234375 L 29.679688 17.519531 C 30.121688 17.340531 30.370812 17.1765 30.507812 17.0625 L 26.808594 15.623047 C 26.618094 15.549047 26.359687 15.498047 26.054688 15.472656 z M 18.474609 18.294922 C 18.321734 18.295422 18.209172 18.334219 18.138672 18.386719 C 18.104672 18.411719 18 18.488906 18 18.753906 L 18 23.416016 C 18 24.071016 18.653844 25.127656 19.589844 25.597656 L 22.779297 27.216797 C 23.295297 27.475797 23.699094 27.469609 23.871094 27.349609 C 23.906094 27.325609 24 27.261953 24 27.001953 L 24 22.001953 C 24 21.297953 23.276281 20.207531 22.238281 19.769531 L 19.048828 18.427734 C 18.820828 18.331234 18.627484 18.294422 18.474609 18.294922 z M 31.5 18.455078 C 31.347 18.455078 31.157594 18.491031 30.933594 18.582031 L 27.779297 19.796875 C 26.735297 20.221875 26 21.3 26 22 L 26 27 C 26 27.254 26.094859 27.31875 26.130859 27.34375 C 26.308859 27.47075 26.727719 27.477844 27.261719 27.214844 L 30.40625 25.701172 C 31.34625 25.237172 32 24.193875 32 23.546875 L 32 18.917969 C 32 18.657969 31.895328 18.578734 31.861328 18.552734 C 31.785328 18.496734 31.664 18.455078 31.5 18.455078 z M 45 20 L 44.896484 20.0625 C 44.890484 20.0655 44.884906 20.066312 44.878906 20.070312 C 44.832906 20.116312 44.789188 20.166078 44.742188 20.205078 L 43.236328 21.439453 C 43.170328 21.494453 43.102156 21.5225 43.035156 21.5625 C 43.015156 21.6745 43 21.782953 43 21.876953 L 43 26.263672 C 43.093 26.192672 43.222766 26.070281 43.384766 25.863281 L 43.931641 25.314453 C 44.562641 24.497453 45 23.250906 45 22.628906 L 45 20 z M 41 23.351562 C 40.844 23.409562 40.619078 23.514219 40.330078 23.699219 L 39.542969 24.203125 C 38.576969 24.821125 38 25.738203 38 26.658203 L 38 30.998047 C 38.206 30.924047 38.535938 30.763406 38.960938 30.441406 L 39.306641 30.220703 C 40.396641 29.379703 41 27.984938 41 27.335938 L 41 23.351562 z M 5.7734375 23.390625 C 5.5894375 23.390625 5.4267813 23.444781 5.3007812 23.550781 C 5.1117812 23.707781 5.0078125 23.974734 5.0078125 24.302734 L 5 29.048828 C 4.999 29.877828 5.6356719 30.753891 6.3886719 30.962891 L 10.921875 32.169922 C 11.231875 32.255922 11.504219 32.214688 11.699219 32.054688 C 11.888219 31.898688 11.993141 31.629781 11.994141 31.300781 L 11.998047 26.501953 C 11.999047 25.732953 11.224344 24.797078 10.402344 24.580078 L 6.0546875 23.429688 C 5.9566875 23.403688 5.8624375 23.390625 5.7734375 23.390625 z M 14.587891 25.576172 C 14.474891 25.581547 14.363937 25.613453 14.273438 25.689453 C 14.103438 25.831453 14.005859 26.127906 14.005859 26.503906 L 14 31.302734 C 13.999 32.144734 14.654641 33.037906 15.431641 33.253906 L 19.873047 34.525391 C 20.244047 34.629391 20.571578 34.593641 20.767578 34.431641 C 20.920578 34.305641 20.996094 34.095641 20.996094 33.806641 L 21 28.951172 C 21 28.630172 20.874781 28.270547 20.675781 27.935547 L 18.724609 26.958984 C 18.428609 26.812984 18.152531 26.621203 17.894531 26.408203 L 14.910156 25.617188 C 14.814656 25.591687 14.700891 25.570797 14.587891 25.576172 z M 45 26.138672 C 44.927 26.198672 44.837375 26.282438 44.734375 26.398438 L 44.154297 26.917969 C 43.517297 27.645969 43 28.923016 43 29.541016 L 43 33.183594 C 43.12 33.074594 43.272266 32.914547 43.447266 32.685547 L 43.892578 32.101562 C 44.534578 31.261563 45 29.762063 45 29.164062 L 45 26.138672 z M 36 26.941406 C 35.715 27.004406 35.193109 27.210922 34.537109 27.669922 L 33.798828 28.148438 C 32.681828 28.932437 32 30.061344 32 31.152344 L 32 36.214844 L 32 36.255859 C 32.162 36.158859 32.389313 36.003047 32.695312 35.748047 L 33.767578 34.978516 C 35.131578 33.836516 36 32.107109 36 31.412109 L 36 26.941406 z M 27.275391 28.736328 L 25.271484 29.572266 C 25.189484 29.606266 25.102625 29.625 25.015625 29.625 C 24.922625 29.625 24.829187 29.604453 24.742188 29.564453 L 23.015625 28.783203 C 23.010625 28.839203 23.001953 28.893172 23.001953 28.951172 L 23 33.806641 C 22.999 34.662641 23.675563 35.574875 24.476562 35.796875 L 28.839844 36.859375 C 29.182844 36.953375 29.486266 36.911375 29.697266 36.734375 C 29.892266 36.572375 30 36.30175 30 35.96875 L 30 31.056641 C 30 30.191641 29.310141 29.276547 28.494141 29.060547 L 27.275391 28.736328 z M 41 30.869141 C 40.869 30.956141 40.708531 31.071656 40.519531 31.222656 L 40.138672 31.476562 C 38.940672 32.427562 38 33.975359 38 34.693359 L 38 39 C 38.093 38.925 38.196453 38.834563 38.314453 38.726562 L 39.103516 38.005859 C 40.220516 36.984859 41 35.454703 41 34.720703 L 41 30.869141 z M 5.7558594 33 C 5.5768594 33 5.419875 33.051344 5.296875 33.152344 C 5.111875 33.305344 5.0088125 33.568531 5.0078125 33.894531 L 5 38.646484 C 4.999 39.480484 5.6375313 40.369844 6.3945312 40.589844 L 10.744141 41.851562 C 11.090141 41.953562 11.4415 41.892406 11.6875 41.691406 C 11.8275 41.577406 11.994141 41.364906 11.994141 41.003906 L 12 36.195312 C 12.001 35.353313 11.348125 34.461094 10.578125 34.246094 L 6.0546875 33.042969 C 5.9496875 33.013969 5.8508594 33 5.7558594 33 z M 14.648438 35.296875 C 14.515562 35.31675 14.396828 35.368219 14.298828 35.449219 C 14.109828 35.604219 14.005859 35.871219 14.005859 36.199219 L 14 41.003906 C 13.999 41.924906 14.538859 42.776375 15.255859 42.984375 L 19.703125 44.273438 C 20.124125 44.394438 20.533391 44.348344 20.775391 44.152344 C 20.924391 44.030344 20.998047 43.852328 20.998047 43.611328 L 21 38.751953 C 21.001 37.857953 20.282438 36.813516 19.523438 36.603516 L 15.082031 35.332031 C 14.927531 35.288531 14.781313 35.277 14.648438 35.296875 z M 36 35.347656 C 35.758 35.469656 35.397781 35.693937 34.925781 36.085938 L 33.828125 36.871094 C 32.491125 37.982094 32 39.358672 32 40.263672 L 32 45.105469 C 32.166 44.974469 32.381344 44.79225 32.652344 44.53125 L 33.613281 43.65625 C 34.958281 42.36125 36 40.474937 36 39.710938 L 36 35.347656 z M 23.800781 37.828125 C 23.602781 37.828125 23.432781 37.885141 23.300781 37.994141 C 23.108781 38.153141 23.001953 38.423906 23.001953 38.753906 L 23 43.613281 C 22.999 44.490281 23.508828 45.203594 24.298828 45.433594 L 28.847656 46.753906 C 29.187656 46.850906 29.492172 46.811625 29.701172 46.640625 C 29.894172 46.481625 30 46.214812 30 45.882812 L 30 40.964844 C 30 40.094844 29.306328 39.167453 28.486328 38.939453 L 24.148438 37.880859 C 24.025437 37.846859 23.909781 37.828125 23.800781 37.828125 z"/>
</svg>
