<svg width="57" height="43" viewBox="0 0 57 43" fill="none"
    xmlns="http://www.w3.org/2000/svg">
    <path fill-rule="evenodd" clip-rule="evenodd" d="M51.6795 34.2746C52.6359 33.2965 53.4635 32.2961 54.1624 31.2728C55.3136 29.5866 56.2595 27.6128 57 25.351C57 24.9803 56.8976 24.6926 56.6917 24.4871C56.4859 24.2816 56.2389 24.1785 55.9517 24.1785C55.6224 24.1785 55.3136 24.384 55.0264 24.7954C54.7382 25.5359 54.3371 26.3994 53.823 27.3867C53.3089 28.3736 52.723 29.3297 52.0648 30.255C51.4109 31.1744 50.6867 31.9719 49.8911 32.6473L49.8748 32.661C48.4402 33.8755 47.1796 34.5003 46.7597 32.2602C46.636 31.6019 46.5745 30.9029 46.5745 30.1625C46.5745 29.1756 46.6254 28.1677 46.7288 27.1397C46.8313 26.1114 46.8829 25.2475 46.8829 24.549C46.7597 24.014 46.5433 23.6236 46.2353 23.3766C45.9268 23.1296 45.5873 23.0065 45.2172 23.0065C44.5589 23.0886 43.9833 23.4587 43.4899 24.117L40.4053 29.1756C40.4874 28.0651 40.7135 26.9029 41.0837 25.6901C41.4538 24.4768 41.6389 23.2737 41.6389 22.0811C41.6389 21.7109 41.608 21.3302 41.5463 20.9398C41.4844 20.5492 41.3717 20.1891 41.2071 19.8602C41.0428 19.5311 40.8167 19.2534 40.5284 19.0273C40.2408 18.8011 39.8498 18.6877 39.3565 18.6877C38.781 18.6877 38.2666 18.8833 37.8141 19.2739C37.3619 19.6647 36.9405 20.1376 36.5495 20.6928C36.1591 21.2481 35.8091 21.8035 35.5005 22.359L34.7296 23.7466C34.2775 24.4457 33.8659 25.186 33.4955 25.9676C33.1256 26.7489 32.7146 27.5303 32.2621 28.3121C32.5497 27.2423 32.8171 26.1937 33.0641 25.1655C33.3106 24.137 33.4342 23.2117 33.4342 22.3897C33.4342 21.9373 33.3624 21.4746 33.2184 21.0013C32.9003 19.9566 31.7462 18.9579 30.7608 18.5787C29.6914 18.1673 28.4781 17.9618 27.1208 17.9618C25.764 17.9618 24.3036 18.1262 22.7412 18.4553C21.178 18.7842 19.6668 19.1645 18.2068 19.5965C16.7466 20.0282 15.379 20.4809 14.1041 20.9538C12.8292 21.4267 11.7805 21.7865 10.9581 22.0335C10.4231 22.2803 10.1558 22.6298 10.1558 23.0823C10.1558 23.3291 10.2483 23.5449 10.4334 23.73C10.6184 23.9149 10.8758 24.0077 11.2045 24.0077C11.2459 24.0077 11.287 23.997 11.328 23.9768C11.3695 23.9561 11.4104 23.9461 11.4515 23.9461C12.6032 23.8225 13.7752 23.73 14.9676 23.6683C16.1604 23.6064 17.3123 23.4317 18.4228 23.1442C18.3562 23.7367 17.4992 26.6494 17.0346 27.7707C16.4383 29.21 15.6772 30.5572 14.7518 31.8115C13.8264 33.066 12.7367 34.1763 11.4822 35.1426C10.0333 36.2591 7.45531 38.2255 5.7141 36.7464C5.59778 36.6477 5.48802 36.5426 5.3852 36.4304C5.12341 36.1464 4.90427 35.8201 4.7272 35.4512C4.48017 34.9371 4.31581 34.3715 4.23373 33.7545C4.15126 33.1378 4.11031 32.5002 4.11031 31.8424C4.11031 30.7319 4.23373 29.3848 4.48017 27.8016C4.7272 26.2182 5.09722 24.5215 5.5907 22.7122C6.08393 20.9024 6.701 19.0415 7.44148 17.1286C8.12791 15.3555 8.9119 13.6528 9.79243 12.021C9.8616 11.8929 9.93116 11.7651 10.0015 11.6384C10.9684 9.89043 12.0478 8.28645 13.2402 6.82685C14.4332 5.36668 15.7287 4.1638 17.1273 3.21787C17.7853 2.76499 18.4228 2.53891 19.0396 2.53891C19.6565 2.53891 20.1602 2.75508 20.5512 3.18661C20.9416 3.61877 21.2604 4.1739 21.5072 4.85248C21.7539 5.53106 21.9287 6.30198 22.0316 7.16605C22.134 8.02935 22.1858 8.87232 22.1858 9.69522C22.1858 11.1344 22.0622 12.3069 21.8158 13.2115C21.5688 14.1165 21.4454 14.6717 21.4454 14.8772C21.4454 15.4942 21.7743 15.8025 22.4328 15.8025C22.8027 15.8025 23.1215 15.6176 23.3889 15.2472C23.6559 14.8772 23.8926 14.3837 24.0981 13.7668C24.3036 13.1498 24.4579 12.4611 24.5608 11.7003C24.6638 10.9392 24.715 10.1477 24.715 9.32515C24.715 6.56956 24.2625 4.32818 23.3577 2.6008C22.4528 0.873616 21.0134 0.00973511 19.0396 0.00973511C17.641 0.00973511 16.3044 0.348931 15.0295 1.0279C13.7546 1.70624 12.7058 2.58003 11.8829 3.6494C9.85375 6.16603 8.07478 8.76289 6.54562 11.44C6.52561 11.4753 6.50541 11.5107 6.48521 11.546C4.94294 14.2601 3.63724 17.1599 2.56787 20.244C1.95101 22.0948 1.40595 24.0692 0.933246 26.1669C0.460355 28.2642 0.223633 30.2794 0.223633 32.2122C0.223633 33.2816 0.347045 34.3509 0.593677 35.4203C0.840501 36.4897 1.22083 37.4562 1.73541 38.3197C1.90351 38.6026 2.08975 38.8678 2.29319 39.1155C2.71166 39.6238 3.20437 40.0579 3.77112 40.4173C4.61406 40.9517 5.63201 41.2193 6.82441 41.2193C7.85281 41.2193 8.85 40.9932 9.81656 40.5407C10.7833 40.088 11.698 39.5022 12.5619 38.7823C13.4252 38.0628 14.2174 37.2608 14.9368 36.3766C15.6567 35.4921 16.3044 34.6185 16.8803 33.7545C16.839 33.9605 16.7672 34.3407 16.6645 34.8962C16.5615 35.4512 16.4484 36.0886 16.3254 36.8085C16.2019 37.528 16.0991 38.2786 16.017 39.06C15.9344 39.8414 15.8934 40.5613 15.8934 41.2193C15.8934 42.1651 16.2019 42.6382 16.8188 42.6382C17.1889 42.6382 17.5383 42.4738 17.8672 42.1447C18.1552 40.2939 18.4637 38.6593 18.7926 37.2401C19.1217 35.821 19.4403 34.454 19.7488 33.1378C20.0572 31.8218 20.3657 30.4542 20.6742 29.0353C20.9826 27.6165 21.2808 26.0018 21.5688 24.1926L21.8773 22.4039C22.9878 22.1569 24.1802 21.9305 25.4555 21.725C26.7303 21.5195 27.7788 21.4164 28.6017 21.4164C29.2595 21.4164 29.8047 21.5707 30.2363 21.8792C30.7685 22.2597 30.9975 22.5875 30.7814 23.1916C30.6554 23.5436 30.5426 23.9242 30.4231 24.3273C30.2843 24.7955 30.1364 25.2941 29.9485 25.8136C29.5992 26.7799 29.2698 27.7874 28.9613 28.8362C28.6533 29.8852 28.3859 30.9233 28.1595 31.9515C27.9334 32.9796 27.8201 33.9255 27.8201 34.7894C27.8201 35.6529 27.9953 36.2908 28.3448 36.7018C28.6942 37.1127 29.1155 37.3188 29.6093 37.3188C30.2264 37.3188 30.8638 36.9691 31.5218 36.2698C32.1797 35.5709 32.8171 34.7273 33.4342 33.7406C34.051 32.7537 34.6269 31.7354 35.1613 30.687C35.6963 29.6384 36.1484 28.764 36.5187 28.0651C36.4777 28.4761 36.4366 28.8876 36.3952 29.299C36.3543 29.71 36.3337 30.1215 36.3337 30.5329C36.3337 30.9439 36.3543 31.4065 36.3952 31.9209C36.4366 32.4349 36.5289 32.9181 36.6729 33.3706C36.8169 33.8229 37.0536 34.2032 37.3821 34.5118C37.7114 34.8201 38.1639 34.9744 38.7395 34.9744C39.8913 34.9744 40.8266 34.5737 41.5463 33.7713C42.2664 32.9693 42.914 32.0957 43.4899 31.1497C43.531 31.6841 43.6237 32.2909 43.7677 32.9693C43.9111 33.6482 44.1273 34.275 44.4152 34.8509C44.7028 35.4269 45.1041 35.9203 45.6183 36.3317C46.1319 36.7427 46.7797 36.9488 47.5615 36.9488C48.0132 36.9488 48.4148 36.8661 48.7648 36.7018C49.1142 36.5372 49.4124 36.3523 49.6589 36.1468C50.3865 35.5321 51.06 34.908 51.6795 34.2746ZM23.1464 40.4444H23.4467C23.7047 40.4444 23.9072 40.3657 24.0551 40.2071C24.2025 40.0495 24.2761 39.8371 24.2761 39.5704C24.2761 39.3047 24.2025 39.093 24.0551 38.9354C23.9072 38.7769 23.7047 38.6981 23.4467 38.6981H23.1464V40.4444ZM23.4467 38.1856C23.8891 38.1856 24.2524 38.3124 24.5364 38.5697C24.8212 38.8257 24.9637 39.1598 24.9637 39.5697C24.9637 39.9782 24.8212 40.3126 24.5364 40.5704C24.2524 40.8285 23.8891 40.9569 23.4467 40.9569H22.4708V38.1856H23.4467ZM28.8777 38.6905V38.177H27.1989V40.9569H28.8777V40.4444H27.8749V39.801H28.7593V39.2868H27.8749V38.6905H28.8777ZM32.2078 38.6785C32.1233 38.6785 32.0541 38.7006 32.0001 38.7452C31.9466 38.7907 31.9191 38.8541 31.9191 38.9388C31.9191 39.0229 31.9444 39.0906 31.9943 39.143C32.0442 39.1942 32.1091 39.2327 32.1901 39.2613C32.2701 39.2884 32.3593 39.3142 32.4586 39.3399C32.5571 39.3645 32.6553 39.3956 32.7527 39.4307C32.8499 39.4661 32.9392 39.5104 33.0194 39.5626C33.0998 39.6159 33.165 39.6905 33.2149 39.7873C33.2652 39.8823 33.2901 39.9973 33.2901 40.1317C33.2901 40.3664 33.194 40.5671 33.0033 40.7342C32.8127 40.9014 32.5612 40.9851 32.249 40.9851C31.9369 40.9851 31.6858 40.9107 31.4947 40.7608C31.304 40.6099 31.2084 40.3973 31.2084 40.1205H31.9272C31.9457 40.341 32.0586 40.4515 32.2668 40.4515C32.364 40.4515 32.4408 40.4264 32.4958 40.3752C32.5513 40.3227 32.5792 40.2585 32.5792 40.1796C32.5792 40.1 32.5542 40.0366 32.5038 39.9861C32.4537 39.9363 32.3889 39.8961 32.3086 39.8677C32.2282 39.8386 32.1383 39.8113 32.04 39.7873C31.9408 39.7623 31.8428 39.7307 31.745 39.6938C31.648 39.6579 31.5592 39.6125 31.4786 39.5611C31.3982 39.5104 31.3331 39.4369 31.2834 39.3399C31.2337 39.2439 31.2084 39.1301 31.2084 38.9981C31.2084 38.7402 31.3042 38.5334 31.4967 38.3784C31.689 38.2226 31.9343 38.1454 32.2331 38.1454C32.5321 38.1454 32.7737 38.2123 32.9582 38.3483C33.1422 38.4838 33.2387 38.6981 33.2468 38.9895H32.5119C32.5012 38.89 32.469 38.8137 32.4152 38.7589C32.3613 38.7049 32.2916 38.6785 32.2078 38.6785ZM36.3078 40.9569H35.6323V38.1856H36.3078V40.9569ZM38.9602 40.5807C38.6851 40.3125 38.5479 39.9741 38.5479 39.5625C38.5479 39.153 38.6851 38.8137 38.9602 38.5463C39.2356 38.2781 39.572 38.1454 39.9693 38.1454C40.2782 38.1454 40.5516 38.2275 40.7911 38.3898C41.031 38.5534 41.198 38.7794 41.2926 39.0691H40.4873C40.3816 38.867 40.213 38.7656 39.9819 38.7656C39.7494 38.7656 39.5673 38.8378 39.4343 38.9825C39.3014 39.1272 39.2344 39.3211 39.2344 39.5625C39.2344 39.8043 39.3014 39.999 39.4343 40.1446C39.5673 40.2895 39.7459 40.3606 39.9693 40.3606C40.1301 40.3606 40.2608 40.3209 40.3624 40.2406C40.4637 40.1609 40.5314 40.0537 40.5662 39.9182H39.7842V39.406H41.2926V39.9182C41.2427 40.1712 41.1047 40.4077 40.8779 40.6254C40.7703 40.7308 40.6367 40.8172 40.4775 40.8815C40.3178 40.9474 40.1484 40.9818 39.9693 40.9818C39.572 40.9818 39.2356 40.8471 38.9602 40.5807ZM46.0176 38.177H45.3416V39.927L44.2118 38.177H43.5368V40.9569H44.2118V39.2071L45.3416 40.9569H46.0176V38.177Z" fill="rgb(15 23 42 / 1)"/>
</svg>
